<svg width="30" height="30" viewBox="0 0 30 30" fill="none" xmlns="http://www.w3.org/2000/svg">
    <symbol id="cloudy">
        <path d="M0 19.1581C0 17.7973 0.41873 16.574 1.25619 15.5156C2.09365 14.4571 3.16074 13.7699 4.47096 13.4675C4.82215 11.8592 5.61909 10.5259 6.87528 9.50874C8.13147 8.47782 9.57677 7.96923 11.2247 7.96923C12.8185 7.96923 14.2503 8.46408 15.493 9.4675C16.7492 10.4709 17.5597 11.7493 17.9244 13.3163H18.2891C19.8829 13.3163 21.2337 13.8798 22.3548 15.0207C23.4759 16.1616 24.0432 17.5362 24.0432 19.1444C24.0432 20.7664 23.4759 22.1409 22.3548 23.2818C21.2337 24.4227 19.8829 25 18.2891 25H5.76767C4.98424 25 4.24133 24.8488 3.53895 24.5327C2.83656 24.2165 2.20171 23.8316 1.68843 23.3093C1.17515 22.787 0.769923 22.1547 0.459252 21.4399C0.148582 20.7251 0 19.9416 0 19.1581ZM1.95858 19.1581C1.95858 20.2028 2.33678 21.11 3.06619 21.8523C3.79559 22.5945 4.70058 22.9794 5.75416 22.9794H18.2891C19.3291 22.9794 20.2341 22.6083 20.977 21.8523C21.7199 21.0963 22.0982 20.2028 22.0982 19.1581C22.0982 18.1135 21.7335 17.2063 20.977 16.464C20.2341 15.7217 19.3426 15.3369 18.2891 15.3369H16.4115C16.2765 15.3369 16.2089 15.2681 16.2089 15.1307L16.1144 14.4571C15.9793 13.1651 15.439 12.0792 14.507 11.2269C13.575 10.3747 12.4674 9.9486 11.1977 9.9486C9.92796 9.9486 8.82035 10.3747 7.87483 11.2407C6.92931 12.0929 6.40252 13.1788 6.28095 14.4571L6.1864 15.0345C6.1864 15.1719 6.11887 15.2406 5.97028 15.2406L5.36245 15.3369C4.38991 15.4193 3.57947 15.8317 2.9176 16.5602C2.29626 17.2887 1.95858 18.1547 1.95858 19.1581ZM13.9126 7.17199C13.7776 7.2957 13.8046 7.39192 14.0072 7.46065C14.588 7.72181 15.0743 7.96923 15.466 8.21666C15.6146 8.25789 15.7226 8.24415 15.7632 8.17542C16.5871 7.39192 17.5326 6.9933 18.6267 6.9933C19.7208 6.9933 20.6529 7.36443 21.4633 8.10669C22.2602 8.84895 22.706 9.7699 22.8005 10.8558L22.9221 11.7355H24.8402C25.7181 11.7355 26.4746 12.0517 27.1094 12.6977C27.7443 13.3438 28.0549 14.0998 28.0549 14.9795C28.0549 15.8042 27.7713 16.519 27.2175 17.1375C26.6637 17.7561 25.9748 18.0997 25.1508 18.1959C25.0158 18.1959 24.9482 18.2647 24.9482 18.4159V19.9691C24.9482 20.1203 25.0158 20.189 25.1508 20.189C26.5151 20.1066 27.6632 19.5568 28.5952 18.5533C29.5272 17.5499 30 16.354 30 14.9795C30 13.5224 29.5002 12.2853 28.4872 11.2682C27.4741 10.2373 26.2584 9.72867 24.8402 9.72867H24.6375C24.2864 8.35411 23.5434 7.22697 22.4088 6.33351C21.2877 5.44005 20.018 5.00019 18.6267 5.00019C16.7357 4.98645 15.1553 5.71496 13.9126 7.17199Z"/>
    </symbol>
</svg>
