<svg width="30" height="30" viewBox="0 0 30 30" fill="none" xmlns="http://www.w3.org/2000/svg">
    <symbol id="day-cloudy">
        <path d="M0 21.3266C0 22.3582 0.245536 23.3095 0.736607 24.1805C1.22768 25.0516 1.89732 25.7393 2.74554 26.2436C3.59375 26.7479 4.50893 27 5.50223 27H17.5893C18.5826 27 19.5089 26.7479 20.3571 26.2436C21.2054 25.7393 21.8862 25.0516 22.3772 24.1805C22.8683 23.3095 23.125 22.3582 23.125 21.3266C23.125 20.5702 22.9687 19.8023 22.6562 19.0344C23.5045 17.9799 23.9286 16.7077 23.9286 15.2521C23.9286 14.4384 23.7723 13.659 23.471 12.914C23.1696 12.1691 22.7455 11.5387 22.221 11C21.6964 10.4613 21.0826 10.0258 20.3571 9.71633C19.6317 9.39542 18.8728 9.24642 18.0804 9.24642C16.4286 9.24642 14.9888 9.91118 13.75 11.2407C12.8906 10.7364 11.8862 10.4842 10.7366 10.4842C9.16295 10.4842 7.77902 10.9885 6.57366 11.9857C5.3683 12.9828 4.58705 14.2665 4.25223 15.8252C3.00223 16.1232 1.98661 16.7765 1.1942 17.808C0.401786 18.8395 0 20.0086 0 21.3266ZM1.90848 21.3266C1.90848 20.3639 2.22098 19.5387 2.84598 18.8395C3.47098 18.1404 4.25223 17.7393 5.18973 17.6246L5.74777 17.5903C5.8817 17.5903 5.95982 17.5215 5.95982 17.384L6.03795 16.765C6.1942 15.5272 6.71875 14.4842 7.61161 13.659C8.50446 12.8223 9.55357 12.4097 10.7478 12.4097C11.9754 12.4097 13.0469 12.8338 13.9509 13.6705C14.8661 14.5072 15.3683 15.5387 15.4799 16.7765L15.558 17.4413C15.5804 17.5673 15.6585 17.6361 15.7924 17.6361H17.5893C18.5714 17.6361 19.4196 18.0029 20.1339 18.7364C20.8482 19.4699 21.2054 20.3295 21.2054 21.3381C21.2054 22.3811 20.8482 23.2636 20.1451 23.9971C19.442 24.7307 18.5826 25.0974 17.6004 25.0974H5.50223C4.52009 25.0974 3.68304 24.7307 2.96875 23.9857C2.26562 23.2407 1.90848 22.3582 1.90848 21.3266ZM9.38616 7.26361C9.38616 7.53868 9.47545 7.77937 9.65402 7.98567L10.3906 8.7192C10.6696 8.93696 10.904 9.02865 11.1049 9.00573C11.3393 9.00573 11.5402 8.90258 11.7187 8.70774C11.8973 8.51289 11.9866 8.27221 11.9866 7.99713C11.9866 7.72206 11.8862 7.49284 11.6964 7.32092L11.0379 6.56447C10.8371 6.38109 10.6138 6.2894 10.3571 6.2894C10.0893 6.2894 9.85491 6.38109 9.66518 6.57593C9.47545 6.75931 9.38616 6.98854 9.38616 7.26361ZM15.346 12.341C16.1161 11.5731 17.0312 11.1948 18.0804 11.1948C19.1853 11.1948 20.1228 11.5845 20.8929 12.3754C21.6629 13.1662 22.0536 14.1175 22.0536 15.2521C22.0536 15.9628 21.8638 16.6734 21.4844 17.361C20.4018 16.2607 19.1071 15.7106 17.5893 15.7106H17.2321C16.9531 14.4613 16.3281 13.3381 15.346 12.341ZM17.1652 6.2894C17.1652 6.58739 17.2545 6.81662 17.4219 7C17.5893 7.18338 17.8125 7.26361 18.0804 7.26361C18.3705 7.26361 18.5937 7.17192 18.7723 7C18.9509 6.81662 19.029 6.58739 19.029 6.2894V3.93983C19.029 3.66476 18.9397 3.44699 18.7612 3.26361C18.5826 3.08023 18.3594 3 18.0804 3C17.8125 3 17.6004 3.09169 17.4219 3.26361C17.2433 3.43553 17.1652 3.66476 17.1652 3.93983V6.2894ZM23.3259 8.91404C23.3259 9.21203 23.404 9.44126 23.5714 9.62464C23.8058 9.80802 24.0402 9.89971 24.2634 9.89971C24.4643 9.89971 24.6875 9.80802 24.9219 9.62464L26.5179 7.98567C26.6964 7.77937 26.7857 7.53868 26.7857 7.25215C26.7857 6.97708 26.6964 6.74785 26.5179 6.56447C26.3393 6.38109 26.1161 6.2894 25.8594 6.2894C25.5915 6.2894 25.3795 6.38109 25.2121 6.56447L23.5714 8.20344C23.404 8.4212 23.3259 8.65043 23.3259 8.91404ZM24.2076 22.4842C24.2076 22.7593 24.2969 23 24.4866 23.2063L25.2121 23.9284C25.3795 24.1117 25.5915 24.2034 25.8594 24.2034C26.1272 24.2034 26.3504 24.1117 26.529 23.9169C26.7076 23.7221 26.7969 23.4928 26.7969 23.2063C26.7969 22.9542 26.7076 22.7249 26.529 22.5415L25.8036 21.7966C25.625 21.6132 25.4129 21.5215 25.1674 21.5215C24.8996 21.5215 24.6763 21.6132 24.4978 21.7966C24.308 21.9799 24.2076 22.2092 24.2076 22.4842ZM25.8482 15.2521C25.8482 15.5158 25.9487 15.7335 26.1384 15.9169C26.317 16.1003 26.5513 16.192 26.8192 16.192H29.096C29.3527 16.192 29.5647 16.1003 29.7433 15.9284C29.9219 15.7564 30 15.5272 30 15.2521C30 14.9771 29.9107 14.7479 29.7433 14.5645C29.5759 14.3811 29.3527 14.2779 29.096 14.2779H26.8192C26.5513 14.2779 26.3281 14.3696 26.1384 14.5645C25.9375 14.7593 25.8482 14.9885 25.8482 15.2521Z"/>
    </symbol>
</svg>
