<svg width="30" height="30" viewBox="0 0 30 30" fill="none" xmlns="http://www.w3.org/2000/svg">
    <symbol id="thunderstorm">
        <path d="M0 13.4653C0 15.0386 0.476878 16.4418 1.43064 17.675C2.38439 18.9081 3.62717 19.7586 5.15896 20.2121L4.2052 22.5934C4.16185 22.7918 4.2341 22.9052 4.40751 22.9052H7.48555L6.06936 29H6.47399L12.1387 20.85C12.1965 20.7933 12.1965 20.7224 12.1532 20.6515C12.1098 20.5806 12.0376 20.5523 11.9364 20.5523H8.78613L12.3699 13.9756C12.4711 13.7771 12.3988 13.6637 12.1676 13.6637H7.91908C7.78902 13.6637 7.67341 13.7346 7.58671 13.8763L6.04046 17.9443C5.01445 17.6891 4.16185 17.1364 3.48266 16.3001C2.80347 15.4638 2.4711 14.5142 2.4711 13.4511C2.4711 12.2747 2.87572 11.2542 3.69942 10.3754C4.52312 9.51075 5.53468 9.00049 6.7341 8.85875L7.5 8.75953C7.68786 8.75953 7.78902 8.67449 7.78902 8.5044L7.89017 7.78152C8.04913 6.25073 8.69942 4.9609 9.86994 3.9262C11.0405 2.8915 12.4133 2.36706 13.9884 2.36706C15.5636 2.36706 16.9364 2.8915 18.1069 3.9262C19.2919 4.9609 19.9566 6.25073 20.1301 7.78152L20.2312 8.60362C20.2312 8.75953 20.3179 8.84457 20.4913 8.84457H22.8035C24.1185 8.84457 25.2312 9.29814 26.1561 10.1911C27.0809 11.0841 27.5578 12.1755 27.5578 13.4228C27.5578 14.6276 27.1243 15.6764 26.2717 16.5552C25.4191 17.434 24.3497 17.9301 23.0925 18.0293C22.9046 18.0293 22.8035 18.1144 22.8035 18.2845V20.2263C22.8035 20.3822 22.9046 20.4673 23.0925 20.4673C25.0145 20.4106 26.6474 19.6877 27.9913 18.327C29.3353 16.9663 30 15.3363 30 13.4369C30 12.1613 29.6821 10.9848 29.0318 9.90762C28.396 8.8304 27.5145 7.97996 26.4162 7.35631C25.3035 6.73265 24.104 6.42082 22.8035 6.42082H22.3555C21.8786 4.53568 20.8526 2.99071 19.3064 1.8001C17.7601 0.609483 15.9827 0 13.9884 0C11.9509 0 10.1301 0.623656 8.55491 1.85679C6.97977 3.08993 5.96821 4.67742 5.52023 6.61926C3.91618 6.98778 2.60116 7.7957 1.56069 9.07136C0.520231 10.347 0 11.8353 0 13.4653ZM11.763 27.2283C11.763 27.781 12.0376 28.1496 12.6012 28.3196C12.6156 28.3196 12.6734 28.3196 12.7601 28.3338C12.8468 28.348 12.9191 28.348 12.9624 28.348C13.2081 28.348 13.4393 28.2771 13.6705 28.1354C13.9017 27.9936 14.0607 27.7669 14.1329 27.455L17.3844 15.1378C17.4711 14.7977 17.4422 14.5 17.2832 14.2165C17.1243 13.9472 16.8931 13.763 16.5607 13.6637C16.315 13.6354 16.185 13.6212 16.185 13.6212C15.9538 13.6212 15.7225 13.6921 15.5058 13.8338C15.289 13.9756 15.1301 14.1882 15.0578 14.4717L11.7919 26.8314C11.7775 26.9731 11.763 27.1007 11.763 27.2283ZM17.7746 22.891C17.7746 23.0753 17.8179 23.2595 17.9191 23.4296C18.1214 23.7414 18.3671 23.9541 18.6561 24.0533C18.815 24.0958 18.9595 24.1241 19.0896 24.1241C19.2197 24.1241 19.3786 24.0958 19.552 24.0108C19.8555 23.8832 20.0578 23.6139 20.159 23.2028L22.2399 15.1662C22.2832 14.9677 22.3121 14.8402 22.3121 14.7835C22.3121 14.5709 22.2399 14.3583 22.0809 14.1456C21.922 13.933 21.7052 13.7771 21.4162 13.6921C21.1705 13.6637 21.0405 13.6496 21.0405 13.6496C20.7948 13.6496 20.5636 13.7204 20.3613 13.8622C20.159 14.0039 20.0145 14.2165 19.9277 14.5L17.8179 22.5792C17.8179 22.6075 17.8179 22.65 17.8035 22.7351C17.7746 22.806 17.7746 22.8485 17.7746 22.891Z"/>
    </symbol>
</svg>
