<svg width="30" height="30" viewBox="0 0 30 30" fill="none" xmlns="http://www.w3.org/2000/svg">
    <symbol id="cloud">
        <path d="M0 18.4384C0 16.6888 0.51973 15.1369 1.55919 13.7676C2.59865 12.3983 3.91242 11.5159 5.51492 11.1355C5.96246 9.05118 6.98749 7.34716 8.56112 6.0083C10.1347 4.66943 11.9538 4 13.9894 4C15.9817 4 17.7575 4.65422 19.3166 5.94744C20.8758 7.24066 21.8864 8.91425 22.3484 10.953H22.8248C24.1242 10.953 25.3224 11.2877 26.4196 11.9419C27.5168 12.5961 28.3975 13.509 29.0327 14.6653C29.6679 15.8216 30 17.0692 30 18.4384C30 19.7773 29.6968 21.0249 29.0905 22.166C28.4841 23.3071 27.6468 24.2199 26.5929 24.9046C25.539 25.5892 24.3696 25.9544 23.1136 26H6.92974C4.99519 25.9087 3.36381 25.1328 2.02117 23.6722C0.678537 22.2268 0 20.4772 0 18.4384ZM2.46872 18.4384C2.46872 19.7621 2.90183 20.9032 3.76805 21.8769C4.63426 22.8506 5.68816 23.3679 6.92974 23.444H23.0847C24.3263 23.3831 25.3802 22.8506 26.2464 21.8769C27.127 20.9032 27.5602 19.7469 27.5602 18.4384C27.5602 17.0996 27.0837 15.9585 26.1453 14.9848C25.2069 14.0111 24.0953 13.5242 22.796 13.5242H20.486C20.3272 13.5242 20.2406 13.4329 20.2406 13.2503L20.1396 12.3831C19.9807 10.74 19.3022 9.35546 18.1184 8.24481C16.9346 7.13416 15.563 6.57123 13.9894 6.57123C12.4158 6.57123 11.0298 7.13416 9.87488 8.24481C8.70549 9.35546 8.04139 10.74 7.89702 12.3831L7.78152 13.2503C7.78152 13.4329 7.68046 13.5242 7.49278 13.5242H6.72762C5.51492 13.6763 4.50433 14.2241 3.69586 15.1521C2.88739 16.0802 2.46872 17.1757 2.46872 18.4384Z"/>
    </symbol>
</svg>
