<svg viewBox="0 0 30 30" xmlns="http://www.w3.org/2000/svg">
    <symbol id="day-rain">
        <path d="M0 17.924C0 19.4111 0.51149 20.697 1.54559 21.7704C2.57969 22.8438 3.83618 23.4141 5.33729 23.4812C5.4596 23.4812 5.52632 23.4141 5.52632 23.2911V21.7928C5.52632 21.6698 5.4596 21.6027 5.33729 21.6027C4.38102 21.558 3.56931 21.1666 2.90215 20.451C2.23499 19.7354 1.90141 18.8856 1.90141 17.924C1.90141 17.0071 2.21275 16.202 2.84655 15.5088C3.48036 14.8155 4.25871 14.4242 5.18162 14.3123L5.77094 14.2564C5.91549 14.2564 5.99333 14.1893 5.99333 14.0663L6.07116 13.4625C6.19348 12.2549 6.69385 11.2374 7.59451 10.4212C8.49518 9.60492 9.55152 9.1912 10.7635 9.1912C11.9755 9.1912 13.0319 9.60492 13.9437 10.4212C14.8554 11.2374 15.3669 12.2549 15.5004 13.4625L15.5782 14.0999C15.5782 14.2341 15.6449 14.3123 15.7672 14.3123H17.5686C18.5582 14.3123 19.4033 14.6701 20.126 15.3858C20.8488 16.1014 21.2046 16.94 21.2046 17.924C21.2046 18.8968 20.871 19.7354 20.2039 20.451C19.5367 21.1666 18.725 21.5468 17.7798 21.6027C17.6464 21.6027 17.5686 21.6698 17.5686 21.7928V23.2911C17.5686 23.4141 17.6353 23.4812 17.7798 23.4812C19.2587 23.4365 20.5152 22.8662 21.5493 21.7928C22.5834 20.7082 23.0949 19.4223 23.0949 17.9351C23.0949 17.1301 22.9392 16.3809 22.6279 15.6877C23.4952 14.6031 23.9288 13.3731 23.9288 11.9866C23.9288 10.9243 23.662 9.94037 23.1394 9.03466C22.6168 8.12896 21.9051 7.41334 21.0044 6.88781C20.1038 6.36228 19.1364 6.10511 18.0912 6.10511C16.3566 6.10511 14.9222 6.75363 13.7769 8.05069C12.8651 7.5587 11.8643 7.31271 10.7635 7.31271C9.1957 7.31271 7.79466 7.8047 6.58265 8.78867C5.37065 9.77264 4.59229 11.025 4.24759 12.5457C3.01334 12.8364 2.00148 13.4849 1.20089 14.4912C0.400296 15.4976 0 16.6381 0 17.924ZM6.00445 25.5945C6.00445 25.7846 6.06005 25.9635 6.18236 26.1424C6.30467 26.3213 6.48258 26.4443 6.72721 26.5114C6.84952 26.5337 6.94959 26.5561 7.02743 26.5561C7.46108 26.5561 7.75019 26.3213 7.88362 25.8405L9.64047 19.2657C9.71831 18.9974 9.68495 18.7514 9.55152 18.5166C9.41809 18.2818 9.21794 18.1476 8.96219 18.0917C8.71757 18.0134 8.48406 18.0358 8.26167 18.17C8.03929 18.293 7.88362 18.483 7.80578 18.7402L6.04892 25.3485C6.02669 25.4938 6.00445 25.5721 6.00445 25.5945ZM8.9066 29.0384C8.9066 29.2508 8.96219 29.4409 9.07339 29.6198C9.18458 29.7987 9.37361 29.9105 9.65159 29.9553C9.77391 29.9776 9.87398 30 9.9407 30C10.1186 30 10.2854 29.9329 10.4411 29.8099C10.5967 29.6757 10.6968 29.4968 10.7413 29.2732L13.4099 19.2881C13.4766 19.0309 13.4544 18.7849 13.3321 18.5725C13.2098 18.36 13.0208 18.2035 12.7761 18.1252C12.5204 18.047 12.2758 18.0693 12.0534 18.2035C11.831 18.3265 11.6753 18.5166 11.6086 18.7738L8.93996 28.7589C8.91772 28.9266 8.9066 29.0272 8.9066 29.0384ZM9.37361 4.18189C9.37361 4.45024 9.46256 4.67387 9.65159 4.86396L10.3744 5.60194C10.5856 5.76966 10.8191 5.84793 11.0638 5.84793C11.2973 5.84793 11.5196 5.75848 11.7087 5.59076C11.8977 5.41185 11.9978 5.1994 11.9978 4.93105C11.9978 4.66269 11.9088 4.4167 11.7309 4.21543L11.0193 3.48863C10.8191 3.29855 10.5967 3.20909 10.3521 3.20909C10.0852 3.20909 9.85174 3.30973 9.66271 3.49981C9.47368 3.6899 9.37361 3.92471 9.37361 4.18189ZM13.5211 25.6168C13.5211 25.7958 13.5767 25.9747 13.6879 26.1424C13.7991 26.3101 13.977 26.4331 14.1994 26.5002C14.3217 26.5225 14.4218 26.5449 14.4774 26.5449C14.6664 26.5449 14.8554 26.489 15.0222 26.3772C15.189 26.2654 15.3002 26.0865 15.3558 25.8293L17.1127 19.2546C17.1794 18.9974 17.1572 18.7514 17.0348 18.5389C16.9125 18.3153 16.7235 18.17 16.4789 18.0917C16.212 18.0134 15.9785 18.0358 15.7561 18.17C15.5337 18.293 15.3892 18.483 15.3225 18.7402L13.5656 25.3485C13.5434 25.5162 13.5211 25.6057 13.5211 25.6168ZM15.3336 9.1353C16.1231 8.38613 17.0348 8.01714 18.0912 8.01714C19.1809 8.01714 20.1149 8.4085 20.871 9.18002C21.6383 9.95155 22.0163 10.8908 22.0163 11.9978C22.0163 12.691 21.8273 13.3843 21.4381 14.0663C20.3595 12.9817 19.0697 12.445 17.5574 12.445H17.1905C16.8903 11.1256 16.2676 10.0298 15.3336 9.1353ZM17.1349 3.265C17.1349 3.52218 17.2239 3.74581 17.4129 3.92471C17.6019 4.10362 17.8243 4.19307 18.0912 4.19307C18.3469 4.19307 18.5693 4.10362 18.7472 3.93589C18.9251 3.75699 19.0141 3.54454 19.0141 3.27618V0.972792C19.0141 0.682072 18.9251 0.447261 18.7583 0.268356C18.5804 0.0894521 18.3692 0 18.1023 0C17.8243 0 17.5908 0.0894521 17.4129 0.279538C17.235 0.469624 17.146 0.693254 17.146 0.972792V3.265H17.1349ZM23.2839 5.81439C23.2839 6.08274 23.384 6.30637 23.5841 6.4741C23.7398 6.653 23.94 6.74245 24.1957 6.76482C24.4514 6.78718 24.685 6.68654 24.8851 6.4741L26.4863 4.87514C26.6864 4.68505 26.7754 4.45024 26.7754 4.1707C26.7754 3.90235 26.6864 3.66754 26.4974 3.48863C26.3084 3.30973 26.086 3.22028 25.8191 3.22028C25.5856 3.22028 25.3744 3.30973 25.1742 3.49981L23.5841 5.10995C23.384 5.30004 23.2839 5.53485 23.2839 5.81439ZM24.1846 19.0645C24.1846 19.3328 24.2735 19.5676 24.4514 19.7689L25.1742 20.4733C25.3744 20.6299 25.5967 20.7082 25.8414 20.7082L25.8636 20.7305C26.1193 20.7305 26.3306 20.6411 26.5085 20.4622C26.6864 20.2833 26.7754 20.0485 26.7754 19.7801C26.7754 19.5117 26.6753 19.2993 26.4863 19.1316L25.7969 18.3936C25.5967 18.2147 25.3632 18.1252 25.1075 18.1252C24.8517 18.1252 24.6294 18.2147 24.4514 18.4048C24.2735 18.5949 24.1846 18.7961 24.1846 19.0645ZM25.808 11.9866C25.808 12.2549 25.9081 12.4674 26.0971 12.6463C26.2973 12.8476 26.5196 12.937 26.7865 12.937H29.0437C29.3106 12.937 29.533 12.8476 29.722 12.6575C29.911 12.4674 30 12.2438 30 11.9866C30 11.7182 29.911 11.4946 29.722 11.3045C29.533 11.1144 29.3106 11.0138 29.0437 11.0138H26.7865C26.5196 11.0138 26.2973 11.1144 26.0971 11.3045C25.897 11.4946 25.808 11.7182 25.808 11.9866Z"/>
    </symbol>
</svg>
