<svg width="30" height="30" viewBox="0 0 30 30" fill="none" xmlns="http://www.w3.org/2000/svg">
    <symbol id="fog">
        <path d="M0 21.3187C0 21.0314 0.0969697 20.7799 0.30303 20.5884C0.509091 20.3968 0.763637 20.301 1.06667 20.301H23.697C24 20.301 24.2424 20.3968 24.4364 20.5884C24.6303 20.7799 24.7273 21.0194 24.7273 21.3187C24.7273 21.5941 24.6303 21.8335 24.4242 22.0131C24.2182 22.2047 23.9758 22.2885 23.697 22.2885H1.06667C0.763637 22.2885 0.509091 22.1927 0.30303 22.0131C0.0969697 21.8216 0 21.5941 0 21.3187ZM3.17576 17.5593C3.17576 17.272 3.28485 17.0325 3.49091 16.8409C3.67273 16.6613 3.91515 16.5656 4.20606 16.5656H26.8364C27.1152 16.5656 27.3455 16.6613 27.5394 16.8529C27.7333 17.0445 27.8182 17.272 27.8182 17.5593C27.8182 17.8466 27.7212 18.0861 27.5394 18.2777C27.3455 18.4812 27.1152 18.577 26.8364 18.577H4.20606C3.91515 18.577 3.67273 18.4812 3.47879 18.2777C3.27273 18.0741 3.17576 17.8347 3.17576 17.5593ZM3.33333 14.6978C3.33333 14.8056 3.39394 14.8535 3.51515 14.8535H5.24848C5.32121 14.8535 5.40606 14.7936 5.49091 14.6619C5.78182 14.0393 6.20606 13.5365 6.77576 13.1414C7.34545 12.7463 7.97576 12.5188 8.65455 12.4709L9.32121 12.3871C9.45455 12.3871 9.52727 12.3153 9.52727 12.1716L9.61212 11.573C9.74546 10.2799 10.2909 9.20239 11.2727 8.34037C12.2545 7.47834 13.4061 7.04732 14.7273 7.04732C16.0364 7.04732 17.1758 7.47834 18.1576 8.32839C19.1273 9.17845 19.6848 10.256 19.8182 11.5371L19.9152 12.2195C19.9152 12.3512 20 12.423 20.1576 12.423H22.0849C22.8606 12.423 23.5758 12.6266 24.2182 13.0456C24.8606 13.4647 25.3333 14.0034 25.6485 14.6859C25.7333 14.8176 25.8182 14.8774 25.903 14.8774H27.6364C27.7818 14.8774 27.8424 14.7936 27.8061 14.6021C27.4545 13.3808 26.7394 12.3751 25.697 11.5969C24.6424 10.8187 23.4424 10.4356 22.097 10.4356H21.7091C21.3091 8.84322 20.4606 7.5382 19.1636 6.52052C17.8667 5.50285 16.4 5 14.7394 5C13.0424 5 11.5394 5.5268 10.2182 6.58039C8.89697 7.63398 8.06061 8.97492 7.68485 10.6032C6.65455 10.8426 5.74545 11.3216 4.9697 12.0519C4.19394 12.7822 3.64849 13.6442 3.34545 14.6619V14.614C3.33333 14.614 3.33333 14.6499 3.33333 14.6978ZM5.28485 24.9823C5.28485 24.695 5.39394 24.4675 5.6 24.2759C5.78182 24.0964 6.02424 24.0006 6.32727 24.0006H28.9697C29.2606 24.0006 29.503 24.0964 29.697 24.2759C29.903 24.4675 30 24.695 30 24.9704C30 25.2577 29.903 25.4971 29.697 25.7007C29.4909 25.9042 29.2485 26 28.9697 26H6.32727C6.04849 26 5.80606 25.8922 5.6 25.6887C5.39394 25.5091 5.28485 25.2577 5.28485 24.9823Z"/>
    </symbol>
</svg>
