<svg width="30" height="30" viewBox="0 0 30 30" fill="none" xmlns="http://www.w3.org/2000/svg">
    <symbol id="rain">
        <path d="M0 14.1625C0 12.4427 0.520984 10.9172 1.56295 9.57129C2.60492 8.22532 3.92185 7.37288 5.51375 6.98405C5.96237 4.95015 6.98987 3.27517 8.56729 1.95912C10.1447 0.643071 11.9537 0 13.9942 0C15.9913 0 17.7569 0.643071 19.3198 1.91426C20.8828 3.18544 21.8958 4.83051 22.3589 6.8345H22.822C24.11 6.8345 25.3111 7.16351 26.411 7.80658C27.5109 8.44965 28.3936 9.34696 29.0304 10.4686C29.6671 11.5902 30 12.8315 30 14.1625C30 15.4786 29.6961 16.6899 29.0883 17.8116C28.4805 18.9332 27.6411 19.8305 26.5847 20.5035C25.5282 21.1765 24.3705 21.5354 23.1114 21.5653C22.9233 21.5653 22.822 21.4756 22.822 21.3111V19.322C22.822 19.1426 22.9233 19.0528 23.1114 19.0528C24.3415 18.993 25.398 18.4845 26.2663 17.5274C27.1346 16.5703 27.5687 15.4487 27.5687 14.1476C27.5687 12.8465 27.0912 11.7248 26.1505 10.7677C25.2098 9.81057 24.0955 9.332 22.8075 9.332H20.4776C20.3039 9.332 20.2171 9.24227 20.2171 9.07777L20.1013 8.21037C19.9421 6.59522 19.2619 5.2343 18.0897 4.15753C16.903 3.0658 15.5427 2.52742 13.9653 2.52742C12.3878 2.52742 10.9986 3.0658 9.84081 4.15753C8.6686 5.24925 8.01737 6.59522 7.87265 8.21037L7.77135 9.00299C7.77135 9.18245 7.67004 9.28714 7.48191 9.28714L6.71491 9.332C5.51375 9.48156 4.50072 10.0199 3.67583 10.9322C2.85094 11.8445 2.44573 12.9212 2.44573 14.1625C2.44573 15.4636 2.87988 16.5852 3.74819 17.5424C4.6165 18.4995 5.67294 19.008 6.90304 19.0678C7.06223 19.0678 7.14906 19.1575 7.14906 19.337V21.326C7.14906 21.4905 7.06223 21.5803 6.90304 21.5803C4.96382 21.4905 3.32851 20.7278 1.98263 19.2921C0.636759 17.8564 0 16.1515 0 14.1625ZM7.7424 24.1675C7.7424 24.1077 7.75687 24.003 7.80029 23.8684L10.1592 15.2393C10.246 14.9551 10.4052 14.7308 10.6223 14.5813C10.8394 14.4317 11.0709 14.3569 11.288 14.3569C11.3893 14.3569 11.5051 14.3719 11.6353 14.4018C11.9826 14.4616 12.2431 14.656 12.4168 14.9551C12.5904 15.2542 12.6339 15.5833 12.5326 15.9571L10.1737 24.5264C10 25.1695 9.59479 25.4835 8.98698 25.4835C8.92909 25.4835 8.88567 25.4686 8.82778 25.4536C8.74095 25.4237 8.69754 25.4088 8.68307 25.4088C8.36469 25.319 8.13314 25.1545 7.97395 24.9153C7.81476 24.661 7.7424 24.4217 7.7424 24.1675ZM11.534 28.3699L15.0651 15.2542C15.123 14.9701 15.2677 14.7458 15.4993 14.5962C15.7308 14.4467 15.9624 14.3719 16.2084 14.3719C16.3386 14.3719 16.4689 14.3868 16.5991 14.4167C16.9175 14.5065 17.1491 14.7009 17.3082 15C17.4674 15.2991 17.4964 15.6132 17.4096 15.9571L13.8929 29.0877C13.835 29.342 13.7048 29.5513 13.4732 29.7308C13.2417 29.9103 13.0101 30 12.7352 30C12.6049 30 12.4747 29.9701 12.3734 29.9252C12.0839 29.8505 11.8379 29.656 11.6208 29.342C11.4616 29.0728 11.4327 28.7587 11.534 28.3699ZM17.5109 24.1974C17.5109 24.1376 17.5253 24.0329 17.5687 23.8534L19.9276 15.2243C20.0145 14.9402 20.1592 14.7159 20.3618 14.5663C20.5789 14.4168 20.7959 14.342 21.0275 14.342C21.1433 14.342 21.2735 14.3569 21.4038 14.3868C21.7077 14.4766 21.9247 14.6261 22.0695 14.8505C22.2142 15.0748 22.2865 15.3141 22.2865 15.5533C22.2865 15.5982 22.2721 15.673 22.2576 15.7627C22.2431 15.8524 22.2287 15.9123 22.2287 15.9422L19.8698 24.5115C19.8119 24.7956 19.6816 25.0349 19.4645 25.1994C19.2475 25.3639 19.0014 25.4536 18.7265 25.4536L18.3792 25.3789C18.0897 25.2891 17.8726 25.1396 17.7135 24.9003C17.5832 24.676 17.5109 24.4367 17.5109 24.1974Z"/>
    </symbol>
</svg>
