<svg width="30" height="30" viewBox="0 0 30 30" fill="none" xmlns="http://www.w3.org/2000/svg">
    <symbol id="snow">
        <path d="M0 15.0298C0 14.6521 0.139349 14.3141 0.398142 14.0358C0.656934 13.7575 0.975448 13.6183 1.35368 13.6183C1.73192 13.6183 2.07034 13.7575 2.32913 14.0358C2.58792 14.3141 2.72727 14.6322 2.72727 15.0298C2.72727 15.4076 2.58792 15.7256 2.32913 15.9841C2.07034 16.2425 1.73192 16.3817 1.37359 16.3817C1.01526 16.3817 0.676841 16.2425 0.418049 15.9841C0.119443 15.7058 0 15.3877 0 15.0298ZM3.9416 15.0298C3.9416 14.6521 4.08096 14.3141 4.33975 14.0358C4.59854 13.7575 4.91705 13.6183 5.29529 13.6183H11.7253L7.18646 9.08549C6.90776 8.84692 6.76841 8.52883 6.76841 8.15109C6.76841 7.77336 6.90776 7.45527 7.18646 7.17694C7.46516 6.89861 7.78368 6.75944 8.16191 6.75944C8.54015 6.75944 8.85866 6.89861 9.13736 7.17694L13.6563 11.6899V5.30815C13.6563 4.93042 13.7956 4.59245 14.0743 4.31412C14.353 4.03579 14.6715 3.89662 15.0697 3.89662C15.4479 3.89662 15.7664 4.03579 16.0252 4.31412C16.284 4.59245 16.4234 4.91054 16.4234 5.30815V11.7296L20.9821 7.15706C21.2608 6.87873 21.5793 6.73956 21.9376 6.73956C22.2959 6.73956 22.6344 6.87873 22.9131 7.15706C23.152 7.43539 23.2714 7.75348 23.2714 8.13121C23.2714 8.50895 23.152 8.82704 22.9131 9.06561L18.3743 13.5984H24.8042C25.1626 13.5984 25.4811 13.7376 25.7399 14.0159C25.9987 14.2942 26.138 14.6123 26.138 15.0099C26.138 15.3678 25.9987 15.6859 25.7399 15.9443C25.4811 16.2028 25.1626 16.3419 24.8042 16.3419H18.3743L22.933 20.8946C23.1719 21.1332 23.2913 21.4513 23.2913 21.829C23.2913 22.2068 23.1719 22.5248 22.933 22.8032C22.6543 23.0815 22.3159 23.2207 21.9575 23.2207C21.5992 23.2207 21.2608 23.0815 21.002 22.8032L16.4433 18.2306V24.672C16.4433 25.0497 16.3039 25.3877 16.0451 25.6461C15.7863 25.9046 15.4678 26.0437 15.0896 26.0437C14.7113 26.0437 14.3729 25.9046 14.0942 25.6461C13.8155 25.3877 13.6762 25.0497 13.6762 24.672V18.2704L9.15727 22.7833C8.87857 23.0616 8.56005 23.2008 8.18182 23.2008C7.80358 23.2008 7.48507 23.0616 7.20637 22.7833C6.92767 22.505 6.78832 22.1869 6.78832 21.8091C6.78832 21.4314 6.92767 21.1332 7.20637 20.8748L11.785 16.3221H5.3351C4.95687 16.3221 4.63835 16.1829 4.37956 15.9245C4.06105 15.7058 3.9416 15.3877 3.9416 15.0298ZM3.96151 24.6521C3.96151 24.2942 4.10086 23.9563 4.37956 23.6978C4.61845 23.4195 4.93696 23.2803 5.3152 23.2803C5.69343 23.2803 6.01194 23.4195 6.29064 23.6978C6.56934 23.9761 6.70869 24.2942 6.70869 24.6521C6.70869 25.0099 6.56934 25.3479 6.29064 25.6064C6.01194 25.8847 5.69343 26.0239 5.3152 26.0239C4.93696 26.0239 4.61845 25.8847 4.37956 25.6064C4.10086 25.3479 3.96151 25.0298 3.96151 24.6521ZM3.96151 5.34791C3.96151 4.99006 4.10086 4.65209 4.37956 4.39364C4.61845 4.11531 4.93696 3.97614 5.3152 3.97614C5.69343 3.97614 6.01194 4.11531 6.29064 4.39364C6.56934 4.67197 6.70869 4.99006 6.70869 5.34791C6.70869 5.70577 6.56934 6.04374 6.29064 6.32207C6.01194 6.6004 5.69343 6.73956 5.3152 6.73956C4.93696 6.73956 4.61845 6.6004 4.37956 6.32207C4.10086 6.04374 3.96151 5.70577 3.96151 5.34791ZM13.6165 28.6282C13.6165 28.2704 13.7558 27.9523 14.0345 27.6938C14.3132 27.4354 14.6317 27.2962 15.0299 27.2962C15.4081 27.2962 15.7266 27.4354 15.9854 27.6938C16.2442 27.9523 16.3835 28.2704 16.3835 28.6282C16.3835 29.006 16.2442 29.3439 15.9854 29.6024C15.7266 29.8608 15.4081 30 15.0299 30C14.6516 30 14.3132 29.8608 14.0345 29.6024C13.7558 29.3439 13.6165 29.0258 13.6165 28.6282ZM13.6165 1.37177C13.6165 0.994036 13.7558 0.656064 14.0345 0.397615C14.3132 0.139166 14.6317 0 15.0299 0C15.4081 0 15.7266 0.139166 15.9854 0.397615C16.2442 0.656064 16.3835 0.994036 16.3835 1.37177C16.3835 1.72962 16.2442 2.04771 15.9854 2.30616C15.7266 2.56461 15.4081 2.70378 15.0299 2.70378C14.6516 2.70378 14.3132 2.56461 14.0345 2.30616C13.7558 2.04771 13.6165 1.72962 13.6165 1.37177ZM23.3112 24.6521C23.3112 24.2942 23.4506 23.9563 23.7293 23.6978C23.9681 23.4195 24.2867 23.2803 24.6649 23.2803C25.0431 23.2803 25.3616 23.4195 25.6403 23.6978C25.919 23.9761 26.0584 24.2942 26.0584 24.6521C26.0584 25.0099 25.919 25.3479 25.6403 25.6064C25.3616 25.8847 25.0431 26.0239 24.6649 26.0239C24.2867 26.0239 23.9681 25.8847 23.7293 25.6064C23.4506 25.3479 23.3112 25.0298 23.3112 24.6521ZM23.3112 5.34791C23.3112 4.99006 23.4506 4.65209 23.7293 4.39364C23.9681 4.11531 24.2867 3.97614 24.6649 3.97614C25.0431 3.97614 25.3616 4.11531 25.6403 4.39364C25.919 4.67197 26.0584 4.99006 26.0584 5.34791C26.0584 5.70577 25.919 6.04374 25.6403 6.32207C25.3616 6.6004 25.0431 6.73956 24.6649 6.73956C24.2867 6.73956 23.9681 6.6004 23.7293 6.32207C23.4506 6.04374 23.3112 5.70577 23.3112 5.34791ZM27.2926 15.0298C27.2926 14.6521 27.432 14.3141 27.6908 14.0358C27.9496 13.7575 28.288 13.6183 28.6662 13.6183C29.0246 13.6183 29.3431 13.7575 29.6019 14.0358C29.8606 14.3141 30 14.6322 30 15.0298C30 15.3877 29.8606 15.7058 29.6019 15.9642C29.3431 16.2227 29.0246 16.3618 28.6662 16.3618C28.288 16.3618 27.9496 16.2227 27.6908 15.9642C27.432 15.7058 27.2926 15.3877 27.2926 15.0298Z"/>
    </symbol>
</svg>
