<svg width="30" height="30" viewBox="0 0 30 30" fill="none" xmlns="http://www.w3.org/2000/svg">
    <symbol id="sunny">
        <path d="M0 14.9859C0 14.6472 0.112994 14.3509 0.353107 14.111C0.59322 13.8852 0.88983 13.7723 1.20056 13.7723H4.08192C4.40678 13.7723 4.67514 13.8852 4.90113 14.1251C5.11299 14.365 5.22599 14.6472 5.22599 14.9859C5.22599 15.3246 5.12712 15.6068 4.91525 15.8467C4.70339 16.0865 4.4209 16.1994 4.09604 16.1994H1.21469C0.889831 16.1994 0.607345 16.0865 0.367232 15.8467C0.127119 15.6068 0 15.3246 0 14.9859ZM4.03955 24.7648C4.03955 24.4403 4.15254 24.158 4.36441 23.904L6.44068 21.8862C6.65254 21.6604 6.93503 21.5616 7.27401 21.5616C7.61299 21.5616 7.89548 21.6745 8.12147 21.8862C8.34746 22.0978 8.46045 22.3659 8.46045 22.6905C8.46045 23.0292 8.34746 23.3396 8.12147 23.5936L6.11582 25.5974C5.53672 26.0489 4.95763 26.0489 4.37853 25.5974C4.15254 25.3716 4.03955 25.0894 4.03955 24.7648ZM4.03955 5.23518C4.03955 4.91063 4.15254 4.62841 4.36441 4.37441C4.64689 4.13452 4.9435 4.02164 5.26836 4.02164C5.5791 4.02164 5.86158 4.13453 6.10169 4.3603L8.12147 6.43462C8.34746 6.64628 8.46045 6.9285 8.46045 7.26717C8.46045 7.60583 8.34746 7.88805 8.12147 8.11383C7.89548 8.3396 7.61299 8.45249 7.27401 8.45249C6.93503 8.45249 6.65254 8.3396 6.44068 8.11383L4.37853 6.09595C4.15254 5.87018 4.03955 5.57385 4.03955 5.23518ZM7.64124 14.9859C7.64124 13.6736 7.9661 12.4459 8.62994 11.317C9.29378 10.1881 10.1836 9.28504 11.3277 8.62182C12.4718 7.95861 13.6864 7.63405 15 7.63405C15.9887 7.63405 16.935 7.83161 17.8531 8.22672C18.7571 8.62182 19.548 9.14393 20.1977 9.80715C20.8616 10.4704 21.3842 11.2465 21.7655 12.1496C22.1469 13.0527 22.3446 14.0122 22.3446 15C22.3446 16.3264 22.0198 17.5541 21.3559 18.683C20.6921 19.8119 19.8023 20.7008 18.6723 21.3641C17.5424 22.0273 16.3136 22.3518 14.9859 22.3518C13.6582 22.3518 12.4294 22.0273 11.2994 21.3641C10.1695 20.7008 9.27966 19.8119 8.61582 18.683C7.98023 17.54 7.64124 16.3123 7.64124 14.9859ZM10.0424 14.9859C10.0424 16.3688 10.5226 17.54 11.4972 18.5136C12.4576 19.4873 13.6299 19.9812 15.0141 19.9812C16.3983 19.9812 17.5706 19.4873 18.5452 18.5136C19.5198 17.54 20.0141 16.3688 20.0141 14.9859C20.0141 13.6312 19.5198 12.4741 18.5452 11.5005C17.5706 10.5409 16.3983 10.0611 15.0141 10.0611C13.6441 10.0611 12.4718 10.5409 11.5113 11.5005C10.5226 12.4741 10.0424 13.6312 10.0424 14.9859ZM13.7994 25.9643C13.7994 25.6256 13.9124 25.3434 14.1525 25.1176C14.3927 24.8918 14.6751 24.7789 15 24.7789C15.339 24.7789 15.6356 24.8918 15.8616 25.1176C16.0876 25.3434 16.2006 25.6256 16.2006 25.9643V28.7723C16.2006 29.111 16.0876 29.4073 15.8475 29.6472C15.6073 29.8871 15.3249 30 15 30C14.6751 30 14.3785 29.8871 14.1525 29.6472C13.9124 29.4073 13.7994 29.111 13.7994 28.7723V25.9643ZM13.7994 4.09219V1.21355C13.7994 0.888994 13.9124 0.606774 14.1525 0.366886C14.3927 0.126999 14.6751 0 15.0141 0C15.3531 0 15.6215 0.112888 15.8616 0.352775C16.1017 0.592662 16.2147 0.874882 16.2147 1.19944V4.09219C16.2147 4.41675 16.1017 4.68485 15.8616 4.91063C15.6215 5.13641 15.339 5.23518 15.0141 5.23518C14.6893 5.23518 14.3927 5.1223 14.1667 4.91063C13.9407 4.69897 13.7994 4.41675 13.7994 4.09219ZM21.596 22.6905C21.596 22.3659 21.709 22.0978 21.9209 21.9003C22.1328 21.6745 22.4011 21.5757 22.7119 21.5757C23.0508 21.5757 23.3333 21.6886 23.5593 21.9003L25.6215 23.9182C25.8475 24.158 25.9605 24.4544 25.9605 24.7789C25.9605 25.1035 25.8475 25.3857 25.6215 25.6115C25.0565 26.0489 24.4915 26.0489 23.9265 25.6115L21.9209 23.6077C21.709 23.3537 21.596 23.0574 21.596 22.6905ZM21.596 7.28128C21.596 6.9285 21.709 6.64628 21.9209 6.44873L23.9265 4.37441C24.1667 4.14864 24.4491 4.03575 24.7599 4.03575C25.0989 4.03575 25.3814 4.14864 25.6073 4.38852C25.8475 4.62841 25.9605 4.91063 25.9605 5.23518C25.9605 5.58796 25.8475 5.88429 25.6215 6.11007L23.5593 8.12794C23.3051 8.35372 23.0226 8.4666 22.7119 8.4666C22.387 8.4666 22.1328 8.35372 21.9209 8.12794C21.709 7.90216 21.596 7.61994 21.596 7.28128ZM24.7881 14.9859C24.7881 14.6472 24.9011 14.365 25.1271 14.111C25.3531 13.8852 25.6215 13.7723 25.9322 13.7723H28.7853C29.1102 13.7723 29.3927 13.8993 29.6328 14.1392C29.8729 14.3791 30 14.6613 30 14.9859C30 15.3104 29.8729 15.5927 29.6328 15.8325C29.3927 16.0724 29.1102 16.1853 28.7853 16.1853H25.9322C25.6073 16.1853 25.3249 16.0724 25.113 15.8325C24.9011 15.5927 24.7881 15.3246 24.7881 14.9859Z"/>
    </symbol>
</svg>
